<svg width="21" height="21" viewBox="0 0 21 21" fill="none" xmlns="http://www.w3.org/2000/svg">
<path fill-rule="evenodd" clip-rule="evenodd" d="M1.18284 1.18284C2.75996 -0.394279 5.31697 -0.394279 6.89408 1.18284L10.5 4.78875L14.1059 1.18284C15.683 -0.394279 18.24 -0.394279 19.8172 1.18284C21.3943 2.75996 21.3943 5.31697 19.8172 6.89408L16.2112 10.5L19.8172 14.1059C21.3943 15.683 21.3943 18.24 19.8172 19.8172C18.24 21.3943 15.683 21.3943 14.1059 19.8172L10.5 16.2112L6.89408 19.8172C5.31697 21.3943 2.75996 21.3943 1.18284 19.8172C-0.394279 18.24 -0.394279 15.683 1.18284 14.1059L4.78875 10.5L1.18284 6.89408C-0.394279 5.31697 -0.394279 2.75996 1.18284 1.18284Z" fill="url(#paint0_linear_4_87)"/>
<defs>
<linearGradient id="paint0_linear_4_87" x1="10.5" y1="0" x2="10.5" y2="21" gradientUnits="userSpaceOnUse">
<stop stop-color="#F87171"/>
<stop offset="1" stop-color="#DC2626"/>
</linearGradient>
</defs>
</svg>
